<svg preserveAspectRatio="none" width="100%" height="100%" overflow="visible" style="display: block;" viewBox="0 0 162.688 57.1041" fill="none" xmlns="http://www.w3.org/2000/svg">
<path id="Combined-Shape" fill-rule="evenodd" clip-rule="evenodd" d="M67.0625 16.1719L66.4151 18.3601H65.3885L67.7233 10.7816H68.7482L71.0701 18.3601H70.0447L69.4074 16.1719H67.0625ZM68.2415 12.0758L67.3096 15.357H69.149L68.2415 12.0758ZM76.8084 18.5006C74.7918 18.5006 73.4827 16.9276 73.4827 14.7472C73.4827 12.6756 74.8039 11.0708 76.725 11.0708C77.9515 11.0708 78.5989 11.6782 78.7172 11.7643L78.1506 12.5017C77.715 12.1008 77.2078 11.8614 76.7003 11.8614C75.4993 11.8614 74.521 13.0452 74.521 14.6945C74.521 16.505 75.5111 17.6976 76.8542 17.6976C77.2912 17.6976 77.7504 17.5575 78.2445 17.2533L78.5989 18.0238C78.0214 18.3166 77.4777 18.5006 76.8084 18.5006ZM82.5442 16.2339L81.8962 18.36H80.8702L83.2048 10.9945H84.2307L86.5513 18.36H85.5264L84.8897 16.2339H82.5442ZM83.7224 12.253L82.7913 15.4417H84.631L83.7224 12.253ZM94.9417 14.7472C94.9417 16.7102 93.8916 18.36 91.582 18.36H89.5306V11.2013H91.593C93.5506 11.2013 94.9417 12.709 94.9417 14.7472ZM90.4973 17.633H91.4641C93.1377 17.633 93.9388 16.1044 93.9388 14.7374C93.9388 13.1308 92.749 11.9274 91.4641 11.9274H90.4973V17.633ZM101.385 9.32449L100.288 10.6264H99.4396L100.36 9.32449H101.385ZM102.104 17.633V18.36H98.3199V11.2013H102.02V11.9274H99.2855V14.3456H101.549V15.0734H99.2855V17.633H102.104ZM106.378 12.6219V18.3601H105.506V11.2012H106.732L108.642 17.0256L108.666 17.3185L108.689 17.0256L110.668 11.2012H111.895V18.3601H110.951V12.5131L110.904 12.8711L109.053 18.3601H108.157L106.437 13.0127L106.378 12.6219ZM115.852 18.36V11.2014H116.818V18.36H115.852ZM124.548 17.633V18.36H120.764V11.2013H124.465V11.9274H121.73V14.3456H123.994V15.0734H121.73V17.633H124.548ZM70.9622 30.1185C70.9622 32.1379 69.9112 33.8365 67.6011 33.8365H65.5513V26.4677H67.6137C69.5702 26.4677 70.9622 28.0198 70.9622 30.1185ZM67.4837 33.0872C69.1582 33.0872 69.9604 31.5135 69.9604 30.1059C69.9604 28.4548 68.7684 27.2165 67.4837 27.2165H66.517V33.0872H67.4837ZM78.0427 27.4029H75.307V29.8218H77.5708V30.5489H75.307V33.109H78.1238V33.8366H74.3406V26.6758H78.0427V27.4029ZM83.6717 29.9524C84.5441 30.473 85.1457 30.9604 85.1457 31.9798C85.1457 33.1186 84.3674 33.9778 83.0016 33.9778C82.0818 33.9778 81.6571 33.8361 80.937 33.4122L81.4451 32.6521C81.988 32.9894 82.3396 33.1856 83.0474 33.1856C83.6602 33.1856 84.1444 32.7614 84.1444 32.0685C84.1444 31.1564 83.1889 30.765 82.482 30.3316C81.5389 29.7568 81.1378 29.2037 81.1378 28.4657C81.1378 27.3378 81.9281 26.5565 83.2945 26.5565C84.0964 26.5565 84.5691 26.6542 85.2055 27.055L84.7458 27.8488C84.2385 27.4993 83.8973 27.3487 83.237 27.3487C82.6472 27.3487 82.1281 27.7713 82.1281 28.3895C82.1281 28.9209 82.4 29.182 83.6717 29.9524ZM92.8188 33.8365V26.6418H94.832C96.0299 26.6418 96.7998 27.3159 96.7998 28.419C96.7998 29.18 96.3256 29.8018 95.6625 30.0626C96.5023 30.2598 97.0371 30.9264 97.0371 31.9068C97.0371 33.0394 96.2653 33.8365 95.1171 33.8365H92.8188ZM93.7911 27.372V29.7364H94.5955C95.3533 29.7364 95.7802 29.1272 95.7802 28.495C95.7802 27.8303 95.4013 27.372 94.6427 27.372H93.7911ZM93.7911 30.5335V33.1047H94.6427C95.5314 33.1047 96.0178 32.6801 96.0178 31.8522C96.0178 31.0008 95.3769 30.5335 94.6427 30.5335H93.7911ZM104.319 33.1047V33.8365H100.517V26.6416H104.237V27.372H101.489V29.8018H103.763V30.5335H101.489V33.1047H104.319ZM109.094 26.4335H110.123L112.457 33.8364H111.425L110.787 31.6989H108.43L107.778 33.8364H106.748L109.094 26.4335ZM108.68 30.9029H110.527L109.615 27.6997L108.68 30.9029ZM120.392 31.3722C120.392 32.8654 119.515 34.0429 117.846 34.0429C116.103 34.0429 115.287 32.8545 115.287 31.3722V26.6415H116.258V31.0987C116.258 32.0481 116.506 33.2691 117.834 33.2691C119.148 33.2691 119.421 32.0481 119.421 31.0987V26.6415H120.392V31.3722ZM126.445 30.173L128.695 33.8365H127.664L125.971 30.9466L124.241 33.8365H123.212L125.474 30.1606L123.317 26.6416H124.349L125.983 29.3669L127.582 26.6416H128.613L126.445 30.173ZM131.064 31.7172V30.8894H133.067V31.7172H131.064ZM137.116 31.6993L136.465 33.8366H135.434L137.779 26.4334H138.811L141.144 33.8366H140.111L139.472 31.6993H137.116ZM138.301 27.6996L137.366 30.903H139.212L138.301 27.6996ZM148.226 28.5931C148.226 29.9446 147.328 30.5445 146.664 30.6205L148.558 33.8363H147.492L145.715 30.7402H145.112V33.8363H144.14V26.6417H146.023C147.386 26.6417 148.226 27.3284 148.226 28.5931ZM145.112 30.01H145.916C146.616 30.01 147.196 29.5409 147.196 28.6039C147.196 27.7758 146.805 27.3501 145.916 27.3501H145.112V30.01ZM150.914 27.3718V26.6417H155.841V27.3718H153.864V33.8365H152.893V27.3718H150.914ZM161.147 29.933C162.025 30.4556 162.629 30.9467 162.629 31.9705C162.629 33.1155 161.848 33.9777 160.473 33.9777C159.549 33.9777 159.123 33.8366 158.401 33.4106L158.909 32.6479C159.455 32.9852 159.809 33.1806 160.52 33.1806C161.136 33.1806 161.622 32.7562 161.622 32.0586C161.622 31.1444 160.662 30.751 159.951 30.3147C159.004 29.7371 158.601 29.1816 158.601 28.4401C158.601 27.3065 159.396 26.522 160.768 26.522C161.575 26.522 162.048 26.6192 162.688 27.0229L162.226 27.8185C161.716 27.4696 161.373 27.3176 160.71 27.3176C160.117 27.3176 159.597 27.743 159.597 28.3646C159.597 28.8973 159.869 29.1604 161.147 29.933ZM66.4353 42.2661L66.0834 42.4385V46.0363L66.4353 46.209H65.2012L65.5517 46.0363V42.4385L65.2012 42.2661H66.4353ZM75.3322 44.1117C76.0355 44.441 76.3984 44.7033 76.3984 45.1944C76.3984 45.8625 75.8524 46.2867 74.9887 46.2867C74.5438 46.2867 74.1953 46.1763 73.8796 46.0055L73.6448 46.3241V44.8698L73.8813 45.4973C74.2568 45.7165 74.6595 45.8328 75.0275 45.8328C75.5347 45.8328 75.8394 45.6123 75.8394 45.2412C75.8394 44.9072 75.5864 44.7628 74.6393 44.3275C73.9621 44.0106 73.6448 43.6705 73.6448 43.2215C73.6448 42.6247 74.2096 42.1993 75.0603 42.1993C75.4066 42.1993 75.7364 42.2756 76.036 42.4154L76.2363 42.1507V43.4733L75.988 42.8969C75.7313 42.7429 75.3853 42.648 75.0409 42.648C74.5278 42.648 74.1961 42.8439 74.1961 43.1797C74.1961 43.4609 74.4239 43.6875 75.3322 44.1117ZM80.8855 42.6419H79.6718V46.0363L80.1513 46.209H78.6588L79.139 46.0363V42.6419H77.9313L77.7167 43.1144L77.7558 42.117L77.8881 42.2661H80.9287L81.0613 42.117L81.1 43.1144L80.8855 42.6419ZM83.6602 42.2661L83.3089 42.4385V46.0363L83.6602 46.209H82.4253L82.7766 46.0363V42.4385L82.4253 42.2661H83.6602ZM88.1541 42.6419H86.9396V46.0363L87.421 46.209H85.9257L86.4068 46.0363V42.6419H85.1999L84.9853 43.1144L85.0241 42.117L85.157 42.2661H88.1973L88.3288 42.117L88.3689 43.1144L88.1541 42.6419ZM92.4013 42.2661H93.636L93.2855 42.4385V44.8587C93.2855 45.3855 93.149 45.6897 92.7917 45.9588C92.4732 46.1981 92.0777 46.324 91.6157 46.324C91.1548 46.324 90.7526 46.1981 90.4341 45.9588C90.0771 45.6897 89.9339 45.3731 89.9339 44.8587V42.4385L89.5834 42.2661H90.8172L90.4659 42.4385V44.7096C90.4659 45.2007 90.506 45.3377 90.7133 45.547C90.9273 45.7678 91.2394 45.8859 91.6098 45.8859C91.9794 45.8859 92.2909 45.7678 92.5055 45.547C92.7128 45.3377 92.7524 45.2007 92.7524 44.7096V42.4385L92.4013 42.2661ZM98.0202 42.6419H96.8049V46.0363L97.2869 46.209H95.7936L96.2738 46.0363V42.6419H95.0656L94.8518 43.1144L94.8903 42.117L95.0226 42.2661H98.0632L98.1955 42.117L98.2345 43.1144L98.0202 42.6419ZM103.483 42.2661C104.736 42.2661 105.64 43.0831 105.64 44.219C105.64 44.7329 105.431 45.247 105.061 45.6357C104.671 46.0472 104.223 46.209 103.476 46.209H101.639L102.054 46.0363V42.4385L101.639 42.2661H103.483ZM104.555 45.4385C104.866 45.1343 105.08 44.6429 105.08 44.2126C105.08 43.3351 104.366 42.6778 103.398 42.6778H102.587V45.797H103.398C103.963 45.797 104.282 45.6949 104.555 45.4385ZM108.114 45.797H109.787L110.082 45.157L110.05 46.2093H107.23L107.581 46.0366V42.4385L107.23 42.2664H109.992L110.023 43.1979L109.789 42.6779H108.114V43.9921H109.327L109.53 43.6282V44.7753L109.325 44.4052H108.114V45.797ZM116.732 42.6778H115.058V44.0339H116.421L116.603 43.7044V44.8528L116.378 44.4472H115.058V46.0365L115.408 46.2089H114.174L114.524 46.0365V42.4384L114.174 42.2663H116.935L116.966 43.1981L116.732 42.6778ZM120.63 44.6617L121.543 46.0088L121.917 46.2091H121.473C121.163 46.2091 120.955 46.077 120.786 45.8201L119.929 44.5187H119.358V46.0364L119.709 46.2091H118.474L118.825 46.0364V42.4381L118.474 42.266H120.13C120.65 42.266 120.897 42.3376 121.143 42.5562C121.351 42.7428 121.481 43.0302 121.481 43.335C121.481 43.9375 120.993 44.4053 120.22 44.4999L120.63 44.6617ZM119.358 44.1055H120.051C120.617 44.1055 120.909 43.8429 120.909 43.335C120.909 43.0832 120.831 42.9044 120.675 42.7912C120.546 42.696 120.434 42.6777 120.051 42.6777H119.358V44.1055ZM125.3 42.1507L126.834 46.0631L127.139 46.2089H126.008L126.27 46.0784L125.878 45.0435H124.142L123.753 46.0631L124.053 46.2089H122.884L123.196 46.0582L124.676 42.3035L124.313 42.1507H124.728V42.1681L124.735 42.1507H125.3ZM124.313 44.5961H125.709L125.009 42.7754L124.313 44.5961ZM131.191 42.2661H132.49L132.139 42.4385V46.209H131.587C129.279 42.9247 129.4 43.141 129.34 43.0304C129.314 42.9882 129.295 42.965 129.288 42.9404V46.0363L129.705 46.209H128.405L128.756 46.0363V42.4385L128.405 42.2661H129.386C131.718 45.5662 131.52 45.2798 131.568 45.3666C131.584 45.4044 131.591 45.4227 131.606 45.4589V42.4385L131.191 42.2661ZM70.9091 42.2661H72.209L71.8571 42.4385V46.209H71.3049C68.9973 42.9247 69.1181 43.141 69.058 43.0304C69.0327 42.9882 69.0133 42.965 69.0074 42.9404V46.0363L69.422 46.209H68.1235L68.4732 46.0363V42.4385L68.1235 42.2661H69.1035C71.4349 45.5662 71.2383 45.2798 71.2858 45.3666C71.3024 45.4044 71.3091 45.4227 71.3254 45.4589V42.4385L70.9091 42.2661ZM133.756 44.2195C133.756 43.0654 134.686 42.1944 135.913 42.1944C136.399 42.1944 136.855 42.3249 137.212 42.5697V43.5027L137 42.9556C136.731 42.7785 136.325 42.6418 135.9 42.6418C134.991 42.6418 134.335 43.2867 134.335 44.1892C134.335 45.1822 134.991 45.8328 135.998 45.8328C136.332 45.8328 136.661 45.7715 136.966 45.6591L137.198 45.0207V46.0124C136.731 46.198 136.38 46.2874 135.965 46.2874C134.673 46.2874 133.756 45.4327 133.756 44.2195ZM141.184 45.797L141.479 45.1578L141.447 46.2098H138.628L138.979 46.0366V42.4395L138.628 42.2664H141.388L141.421 43.1979L141.186 42.6779H139.512V43.9921H140.725L140.927 43.6282V44.7753L140.722 44.4052H139.512V45.797H141.184ZM45.6694 17.0682C45.9885 18.635 46.7921 23.0049 46.7921 28.551C46.7921 34.0617 45.9902 38.5014 45.6694 40.0364C43.7054 49.9252 34.3374 57.1041 23.3952 57.1041C12.4521 57.1041 3.08502 49.9234 1.12093 40.0333C0.801869 38.4613 0 34.0912 0 28.551C0 23.0049 0.801869 18.6505 1.11756 17.0822L1.12093 17.0705C3.08502 7.17911 12.4521 0 23.3952 0C34.3374 0 43.7054 7.17756 45.6694 17.0682ZM45.1512 39.9508C45.8787 36.3223 46.2629 32.3807 46.2629 28.551C46.2629 23.1525 45.488 18.7935 45.1546 17.1706C43.2335 7.50296 34.0815 0.486172 23.3952 0.486172C12.708 0.486172 3.55856 7.49754 1.64025 17.1576C1.44842 18.0625 0.528306 22.7035 0.528306 28.551C0.528306 34.1967 1.36051 38.5032 1.63323 39.917C3.55547 49.5926 12.7088 56.6161 23.3952 56.6161C34.0815 56.6171 43.231 49.6081 45.1512 39.9508ZM13.7467 33.8867C18.2945 32.2051 26.9665 28.1633 28.5011 20.4016C28.5011 20.4016 28.6873 24.9813 25.5596 28.5592C21.8182 32.8371 13.7405 36.5768 13.7405 36.5768L13.7467 33.8867ZM32.9596 23.6801C32.9596 23.6801 33.5966 21.7334 35.1678 20.578C37.3844 18.9466 39.3448 18.2433 39.3448 18.2433C39.3448 18.2433 38.0708 20.2369 36.6656 21.2524C35.0656 22.4098 32.9596 23.6801 32.9596 23.6801ZM30.2686 24.0199C30.2686 24.0199 31.7862 25.0853 32.3243 26.6048C33.0846 28.7516 33.1065 30.4257 33.1065 30.4257C33.1065 30.4257 31.7412 28.8702 31.2755 27.5153C30.7447 25.9744 30.2686 24.0199 30.2686 24.0199ZM31.2254 24.0834C31.2254 24.0834 33.3964 24.0576 35.0822 25.2125C37.4622 26.8418 40.1619 29.9126 40.1619 29.9126C40.1619 29.9126 35.3271 27.6919 33.9424 26.3329C32.4721 24.8873 31.2254 24.0834 31.2254 24.0834ZM28.4023 17.8962C28.4023 17.8962 27.6223 16.4708 27.8102 15.1568C28.0762 13.3013 28.7402 12.1077 28.7402 12.1077C28.7402 12.1077 29.1997 13.8122 29.0196 14.9774C28.8163 16.3023 28.4023 17.8962 28.4023 17.8962ZM27.1211 16.674C27.1211 16.674 25.2447 15.728 23.7971 14.8249C22.5245 14.0314 21.2471 12.2821 21.2471 12.2821C21.2471 12.2821 22.9385 12.7019 24.9484 13.9808C26.3726 14.8872 27.1211 16.674 27.1211 16.674ZM20.0935 34.5674C20.0935 34.5674 22.5679 36.3297 23.4155 38.53C24.8378 42.2252 24.4702 46.0766 24.4702 46.0766C24.4702 46.0766 23.2667 43.2141 21.1852 39.408C20.0258 37.2883 20.0935 34.5674 20.0935 34.5674ZM24.6116 37.8406C24.6116 37.8406 27.5539 36.7848 30.1368 37.2767C34.4711 38.1022 38.092 40.4589 38.092 40.4589C38.092 40.4589 34.6839 39.9006 29.9177 39.5475C27.2618 39.348 24.6116 37.8406 24.6116 37.8406ZM25.4787 39.0199C25.4787 39.0199 27.6153 39.5275 28.8609 40.7756C30.9528 42.8713 31.9605 45.5663 31.9605 45.5663C31.9605 45.5663 30.2765 43.97 27.7307 41.9809C26.312 40.8705 25.4787 39.0199 25.4787 39.0199ZM4.52125 26.2823C4.52125 26.2823 7.33411 24.5418 9.75038 24.4694C13.1615 24.3684 15.2629 25.1345 15.2629 25.1345C15.2629 25.1345 11.9937 26.4154 9.85402 26.4588C7.4164 26.508 4.52125 26.2823 4.52125 26.2823ZM9.20888 20.7768C9.20888 20.7768 12.8559 21.0761 15.0247 22.417C18.0864 24.309 19.4573 26.5137 19.4573 26.5137C19.4573 26.5137 16.071 24.8076 14.0428 23.774C11.0595 22.2529 9.20888 20.7768 9.20888 20.7768ZM17.1566 29.5193C16.1567 29.5046 15.3697 28.7964 15.2697 28.3872C15.1692 27.9794 16.2884 27.4893 16.8134 27.4733C17.3411 27.4588 18.6098 27.738 18.6733 28.5276C18.7393 29.3185 17.7307 29.5278 17.1566 29.5193ZM17.7222 23.0598C17.3073 22.2289 17.6584 21.2762 18.012 21.0169C18.3679 20.7587 19.4163 21.4411 19.7149 22.2601C19.8823 22.7174 19.9466 23.7409 19.1273 23.9663C18.4229 24.1586 17.9601 23.5383 17.7222 23.0598ZM24.4011 33.7996C25.4993 33.2403 26.8393 33.5525 27.2263 33.9387C27.6153 34.3245 26.7834 35.6068 25.6933 36.0338C25.083 36.2718 23.6871 36.4481 23.299 35.5174C22.9661 34.7223 23.7736 34.1237 24.4011 33.7996ZM26.1315 18.067C26.7615 17.9305 27.3513 18.2621 27.4701 18.5064C27.5886 18.7509 26.9595 19.2836 26.3584 19.3536C26.0217 19.3934 25.317 19.2988 25.2951 18.7827C25.2768 18.3402 25.7717 18.1463 26.1315 18.067Z" fill="var(--fill-0, black)"/>
</svg>
