<svg preserveAspectRatio="none" width="100%" height="100%" overflow="visible" style="display: block;" viewBox="0 0 152.026 18.378" fill="none" xmlns="http://www.w3.org/2000/svg">
<g id="Group">
<path id="Vector" d="M6.23452 18.0344L0.000118849 0.348079H2.99135L7.6912 15.1668H7.71411L12.3911 0.348079H15.2586L9.17536 18.0344H6.22994H6.23452Z" fill="var(--fill-0, #F5EFE0)"/>
<path id="Vector_2" d="M17.2656 18.0344V0.348083H19.9866V18.0344H17.2656Z" fill="var(--fill-0, #F5EFE0)"/>
<path id="Vector_3" d="M22.5469 18.0344V0.348083H25.2678V15.6844H34.2232V18.0344H22.5469Z" fill="var(--fill-0, #F5EFE0)"/>
<path id="Vector_4" d="M36.0646 18.0344V0.348079H38.7856V15.6844H47.7409V18.0344H36.0646Z" fill="var(--fill-0, #F5EFE0)"/>
<path id="Vector_5" d="M48.817 18.0344L55.395 0.348079H58.3404L64.9687 18.0344H62.0004L60.5391 13.7788H53.1412L51.68 18.0344H48.8124H48.817ZM53.9612 11.4793H59.7742L56.8791 2.87207H56.8287L53.9612 11.4793Z" fill="var(--fill-0, #F5EFE0)"/>
<path id="Vector_6" d="M71.9688 18.0344V0.348083H74.6897V7.746H83.3702V0.348083H86.1141V18.0344H83.3702V10.0959H74.6897V18.0344H71.9688Z" fill="var(--fill-0, #F5EFE0)"/>
<path id="Vector_7" d="M88.6152 18.0344V0.348083H101.13V2.69801H91.3362V7.71852H99.9205V10.0684H91.3362V15.6844H101.377V18.0344H88.6152Z" fill="var(--fill-0, #F5EFE0)"/>
<path id="Vector_8" d="M102.591 9.1753C102.591 3.85704 105.829 4.94538e-05 110.877 4.94538e-05C115.453 4.94538e-05 117.877 2.45075 118.445 5.81302H115.6C115.128 3.58678 113.475 2.34998 110.85 2.34998C106.942 2.34998 105.431 5.86341 105.431 9.1753C105.431 12.4872 106.567 16.0281 110.699 16.0281C113.617 16.0281 115.944 13.9988 115.967 11.058H110.749V8.78135H118.738V18.0345H116.86L116.191 15.5838H116.141C114.904 17.3886 113.246 18.378 110.552 18.378C105.458 18.378 102.586 14.521 102.586 9.1753H102.591Z" fill="var(--fill-0, #F5EFE0)"/>
<path id="Vector_9" d="M121.17 18.0344V0.348083H128.54C132.447 0.348083 134.55 2.18039 134.55 5.44188C134.55 7.69103 133.19 9.32636 131.234 9.77069V9.82108C135.338 10.5861 133.831 17.5626 134.797 17.8603V18.0344H131.879C131.087 17.2923 132.768 11.1083 128.439 11.1083H123.886V18.0344H121.165H121.17ZM127.945 8.75835C130.441 8.75835 131.802 7.66813 131.802 5.64344C131.802 3.73784 130.711 2.69801 127.99 2.69801H123.886V8.75835H127.945Z" fill="var(--fill-0, #F5EFE0)"/>
<path id="Vector_10" d="M135.875 18.0344L142.453 0.348079H145.398L152.026 18.0344H149.058L147.597 13.7788H140.199L138.738 18.0344H135.87H135.875ZM141.019 11.4793H146.832L143.937 2.87207H143.886L141.019 11.4793Z" fill="var(--fill-0, #F5EFE0)"/>
</g>
</svg>
