<svg preserveAspectRatio="none" width="100%" height="100%" overflow="visible" style="display: block;" viewBox="0 0 353.84 42.76" fill="none" xmlns="http://www.w3.org/2000/svg">
<g id="Group">
<path id="Vector" d="M14.5 41.97L0 0.800003H6.97L17.9 35.29H17.95L28.83 0.800003H35.5L21.34 41.97H14.49H14.5Z" fill="var(--fill-0, #F5EFE0)"/>
<path id="Vector_2" d="M40.1797 41.97V0.800049H46.5097V41.97H40.1797Z" fill="var(--fill-0, #F5EFE0)"/>
<path id="Vector_3" d="M52.4609 41.97V0.800049H58.7909V36.4901H79.6309V41.96H52.4609V41.97Z" fill="var(--fill-0, #F5EFE0)"/>
<path id="Vector_4" d="M83.9395 41.97V0.800049H90.2695V36.4901H111.109V41.96H83.9395V41.97Z" fill="var(--fill-0, #F5EFE0)"/>
<path id="Vector_5" d="M113.61 41.97L128.92 0.800049H135.77L151.2 41.97H144.29L140.89 32.07H123.68L120.28 41.97H113.6H113.61ZM125.58 26.71H139.11L132.37 6.67004H132.25L125.58 26.71Z" fill="var(--fill-0, #F5EFE0)"/>
<path id="Vector_6" d="M167.5 41.97V0.800003H173.83V18.01H194.04V0.800003H200.43V41.97H194.04V23.49H173.83V41.97H167.5Z" fill="var(--fill-0, #F5EFE0)"/>
<path id="Vector_7" d="M206.25 41.97V0.800003H235.39V6.27H212.59V17.96H232.57V23.43H212.59V36.5H235.97V41.97H206.26H206.25Z" fill="var(--fill-0, #F5EFE0)"/>
<path id="Vector_8" d="M238.78 21.36C238.78 8.98 246.32 0 258.07 0C268.72 0 274.36 5.7 275.69 13.53H269.07C267.98 8.34 264.12 5.45999 258.02 5.45999C248.92 5.45999 245.41 13.63 245.41 21.35C245.41 29.07 248.06 37.3 257.67 37.3C264.46 37.3 269.88 32.58 269.93 25.73H257.78V20.43H276.38V41.96H272L270.45 36.26H270.33C267.45 40.47 263.59 42.76 257.31 42.76C245.45 42.76 238.77 33.78 238.77 21.34V21.36H238.78Z" fill="var(--fill-0, #F5EFE0)"/>
<path id="Vector_9" d="M282.02 41.97V0.800049H299.18C308.28 0.800049 313.17 5.06005 313.17 12.66C313.17 17.9 310 21.7 305.46 22.73V22.8501C315.01 24.6401 311.51 40.87 313.75 41.56V41.96H306.96C305.12 40.23 309.03 25.84 298.96 25.84H288.37V41.96H282.03L282.02 41.97ZM297.79 20.3801C303.6 20.3801 306.77 17.85 306.77 13.12C306.77 8.69004 304.24 6.27005 297.91 6.27005H288.36V20.37H297.81H297.8L297.79 20.3801Z" fill="var(--fill-0, #F5EFE0)"/>
<path id="Vector_10" d="M316.25 41.97L331.56 0.800003H338.41L353.84 41.97H346.93L343.53 32.07H326.32L322.92 41.97H316.24H316.25ZM328.23 26.71H341.76L335.02 6.67H334.9L328.23 26.71Z" fill="var(--fill-0, #F5EFE0)"/>
</g>
</svg>
