<svg preserveAspectRatio="none" width="100%" height="100%" overflow="visible" style="display: block;" viewBox="0 0 100.47 171.277" fill="none" xmlns="http://www.w3.org/2000/svg">
<g id="Group">
<path id="Vector" d="M67.5902 123.767L27.9922 163.365L35.9047 171.277L75.5027 131.679L67.5902 123.767Z" fill="var(--fill-0, #F5EFE0)"/>
<path id="Vector_2" d="M35.9247 123.802L27.998 131.729L35.9247 139.655L43.8514 131.729L35.9247 123.802Z" fill="var(--fill-0, #F5EFE0)"/>
<path id="Vector_3" d="M49.84 34.85H71.35L60.12 58.75L72.05 58.74L99.69 0H87.74L76.59 23.71H55.07L66.22 0H53.85L33.1 44.55L12.25 0H0L33.1 70.44L49.84 34.85Z" fill="var(--fill-0, #F5EFE0)"/>
<path id="Vector_4" d="M54.99 68.44L50 78.88L82.82 104.77H54.74L13.34 71.57L7.57001 81.92L37.37 104.59H0.75V115.83H89.37L100.47 104.74L54.99 68.44Z" fill="var(--fill-0, #F5EFE0)"/>
</g>
</svg>
