<svg preserveAspectRatio="none" width="100%" height="100%" overflow="visible" style="display: block;" viewBox="0 0 47.5892 83.0493" fill="none" xmlns="http://www.w3.org/2000/svg">
<g id="g3477">
<path id="path4337-3" d="M7.09916 8.81041C3.54981 12.5984 1.32663 18.1166 1.41296 23.3069C1.59322 34.1532 6.4822 38.259 14.3006 53.1869C17.1169 59.7558 20.0563 66.7065 22.8519 78.2183C23.2404 79.9164 23.6194 81.4938 23.7946 81.6304C23.9698 81.7672 24.3488 80.1842 24.7373 78.4862C27.5329 66.9743 30.4723 60.0291 33.2887 53.4603C41.107 38.5324 45.996 34.4265 46.1763 23.5802C46.2626 18.3898 44.0339 12.8662 40.4846 9.07815C36.43 4.75096 30.3145 1.54851 23.7946 1.41459C17.2747 1.28059 11.1537 4.48321 7.09916 8.81041Z" fill="var(--fill-0, #CE6223)" stroke="var(--stroke-0, #F5EFE0)" stroke-width="2.82106"/>
<path id="path3049" d="M23.804 32.2745C28.5334 32.2745 32.3674 28.4406 32.3674 23.7112C32.3674 18.9818 28.5334 15.1479 23.804 15.1479C19.0746 15.1479 15.2406 18.9818 15.2406 23.7112C15.2406 28.4406 19.0746 32.2745 23.804 32.2745Z" fill="var(--fill-0, #F5EFE0)"/>
</g>
</svg>
