<svg preserveAspectRatio="none" width="100%" height="100%" overflow="visible" style="display: block;" viewBox="0 0 353.161 69.8146" fill="none" xmlns="http://www.w3.org/2000/svg">
<g id="Group">
<path id="Vector" d="M62.3828 55.9394L57.0078 61.3125L62.3809 66.6874L67.7558 61.3144L62.3828 55.9394Z" fill="var(--fill-0, #F5EFE0)"/>
<path id="Vector_2" d="M153.1 40.2246C153.1 45.1946 150.6 47.5146 145.25 47.5146H133.25C128.53 47.5146 126.22 46.2646 125.46 43.2346C127.18 42.7446 129.04 42.2546 131.11 41.8646L131.73 41.7446V35.2846L131.18 35.1346C127.77 34.1846 124.83 32.1346 121.72 29.9746C117.04 26.7146 112.22 23.3346 105.21 23.3346C102.25 23.3346 92.55 24.1146 92.55 34.1646V34.9146H99.06V34.1646C99.06 31.3446 101.2 29.9146 105.39 29.9146C110.41 29.9146 113.29 32.0646 116.35 34.3246C118.08 35.6146 119.86 36.9246 122.05 37.8546C117.5 39.2546 113.67 40.8646 110.21 42.3046C103.53 45.1146 97.76 47.5246 89.44 47.5246H81.59C76.87 47.5246 74.56 46.2746 73.8 43.2446C75.52 42.7546 77.38 42.2646 79.45 41.8746L80.07 41.7546V35.2946L79.52 35.1446C76.11 34.1946 73.17 32.1446 70.06 29.9846C65.38 26.7246 60.56 23.3446 53.55 23.3446C50.59 23.3446 40.89 24.1246 40.89 34.1746V34.9246H47.4V34.1746C47.4 31.3546 49.54 29.9246 53.73 29.9246C58.75 29.9246 61.63 32.0746 64.67 34.3346C66.4 35.6246 68.18 36.9346 70.37 37.8646C65.82 39.2646 61.99 40.8746 58.53 42.3146C51.85 45.1246 46.08 47.5346 37.76 47.5346H17.59V25.7546H11.27V58.9946C11.27 62.2246 9.5 63.3746 7.98 63.3746C4.98 63.3746 2.69 63.1446 0.970001 62.6446L0 62.3646V68.8646L0.540001 69.0246C2.35 69.5546 4.72 69.8146 7.78 69.8146C14.29 69.8146 17.59 66.3446 17.59 59.4946V53.9746H40.68C48.44 53.9746 53.63 51.5546 59.66 48.7446C62.41 47.4546 65.25 46.1446 68.63 44.8846C69.3 51.1546 73.35 53.9546 81.58 53.9546H92.34C100.1 53.9546 105.29 51.5346 111.32 48.7246C114.07 47.4346 116.91 46.1246 120.29 44.8646C120.96 51.1346 125.01 53.9346 133.25 53.9346H145.39C154.58 53.9346 159.44 49.0146 159.44 39.6946V7.15456H153.12V40.2246H153.1Z" fill="var(--fill-0, #F5EFE0)"/>
<path id="Vector_3" d="M173.259 7.17456H166.939V53.9646H173.259V7.17456Z" fill="var(--fill-0, #F5EFE0)"/>
<path id="Vector_4" d="M221.84 42.8946L215.85 11.4746H209.5L215.49 42.8946H221.84Z" fill="var(--fill-0, #F5EFE0)"/>
<path id="Vector_5" d="M284.745 58.4544L279.371 63.8284L284.745 69.2024L290.119 63.8284L284.745 58.4544Z" fill="var(--fill-0, #F5EFE0)"/>
<path id="Vector_6" d="M295.507 58.4629L290.133 63.8369L295.507 69.2109L300.881 63.8369L295.507 58.4629Z" fill="var(--fill-0, #F5EFE0)"/>
<path id="Vector_7" d="M338.571 15.2846C330.741 15.2846 324.831 22.1346 324.831 31.2346C324.831 36.1446 327.101 41.9946 337.931 41.9946H346.311C345.201 46.2046 341.041 47.5146 329.641 47.5146H301.341C295.791 47.5146 292.981 45.3546 292.981 41.1146V25.7246H286.661V41.1146C286.661 45.2346 283.921 47.5146 278.931 47.5146H246.961C241.411 47.5146 238.601 45.3546 238.601 41.1146V7.18457H232.281V41.1146C232.281 45.2346 229.541 47.5146 224.551 47.5146H199.881V53.9646H225.441C229.981 53.9646 233.541 52.0246 235.451 48.5546C237.411 52.0146 241.191 53.9646 246.091 53.9646H279.841C284.381 53.9646 287.941 52.0246 289.851 48.5546C291.811 52.0146 295.591 53.9646 300.491 53.9646H329.681C346.591 53.9646 353.161 49.7946 353.161 39.0846V36.9246C353.161 26.2746 347.711 15.2746 338.601 15.2746H338.581L338.571 15.2846ZM346.551 34.9746V35.5446H337.931C332.571 35.5446 331.531 33.9446 331.531 31.1646C331.531 26.7146 334.001 21.9846 338.561 21.9846C343.121 21.9846 346.411 29.8146 346.541 34.9746H346.551Z" fill="var(--fill-0, #F5EFE0)"/>
<path id="Vector_8" d="M338.549 4.60851e-05L333.176 5.375L338.551 10.7481L343.924 5.37312L338.549 4.60851e-05Z" fill="var(--fill-0, #F5EFE0)"/>
</g>
</svg>
