<svg preserveAspectRatio="none" width="100%" height="100%" overflow="visible" style="display: block;" viewBox="0 0 151.733 29.9772" fill="none" xmlns="http://www.w3.org/2000/svg">
<g id="Group">
<path id="Vector" d="M26.8138 24.0384L24.5039 26.3474L26.813 28.6573L29.1228 26.3482L26.8138 24.0384Z" fill="var(--fill-0, #F5EFE0)"/>
<path id="Vector_2" d="M65.7842 17.2839C65.7842 19.4185 64.7123 20.4125 62.4082 20.4125H57.2502C55.221 20.4125 54.2269 19.8766 53.9017 18.5711C54.6392 18.3603 55.4408 18.1496 56.3295 17.9801L56.5952 17.9298V15.1538L56.357 15.0897C54.8912 14.6866 53.6269 13.8025 52.2939 12.8726C50.2875 11.4709 48.2124 10.0188 45.1983 10.0188C43.9202 10.0188 39.7609 10.3532 39.7609 14.6683V14.9935H42.5598V14.6683C42.5598 13.4589 43.4759 12.8451 45.2807 12.8451C47.4383 12.8451 48.6751 13.7658 49.9852 14.737C50.7272 15.2912 51.4922 15.8547 52.4313 16.2532C50.4753 16.8579 48.8262 17.545 47.3467 18.168C44.4745 19.3727 41.9963 20.4125 38.4233 20.4125H35.0519C33.0226 20.4125 32.0286 19.8766 31.7034 18.5711C32.4409 18.3603 33.2425 18.1496 34.1312 17.9801L34.3969 17.9298V15.1538L34.1587 15.0897C32.6928 14.6866 31.4285 13.8025 30.0955 12.8726C28.0892 11.4709 26.0141 10.0188 23 10.0188C21.7219 10.0188 17.5626 10.3532 17.5626 14.6683V14.9935H20.3614V14.6683C20.3614 13.4589 21.2776 12.8451 23.0824 12.8451C25.2399 12.8451 26.4767 13.7658 27.7868 14.737C28.5289 15.2912 29.2939 15.8547 30.233 16.2532C28.277 16.8533 26.6279 17.545 25.1483 18.168C22.2762 19.3727 19.798 20.4125 16.225 20.4125H7.55824V11.054H4.84185V25.3322C4.84185 26.7202 4.07687 27.2104 3.4264 27.2104C2.13921 27.2104 1.15435 27.1096 0.412268 26.8943L0 26.7752V29.5694L0.233619 29.6382C1.01235 29.8672 2.02927 29.9771 3.34395 29.9771C6.14279 29.9771 7.55824 28.4838 7.55824 25.543V23.1747H17.4756C20.8104 23.1747 23.0412 22.1349 25.6293 20.9301C26.8111 20.3805 28.0342 19.8124 29.4817 19.2765C29.7703 21.97 31.5064 23.1747 35.0473 23.1747H39.6739C43.0087 23.1747 45.2395 22.1349 47.8276 20.9301C49.0095 20.3805 50.2325 19.8124 51.68 19.2765C51.9686 21.97 53.7047 23.1747 57.2457 23.1747H62.4586C66.4072 23.1747 68.496 21.0584 68.496 17.0548V3.07437H65.7796V17.2747L65.7842 17.2839Z" fill="var(--fill-0, #F5EFE0)"/>
<path id="Vector_3" d="M74.4508 3.08354H71.7344V23.1839H74.4508V3.08354Z" fill="var(--fill-0, #F5EFE0)"/>
<path id="Vector_4" d="M95.3207 18.4337L92.7463 4.93418H90.0207L92.5951 18.4337H95.3207Z" fill="var(--fill-0, #F5EFE0)"/>
<path id="Vector_5" d="M122.349 25.1182L120.039 27.4277L122.349 29.7372L124.658 27.4277L122.349 25.1182Z" fill="var(--fill-0, #F5EFE0)"/>
<path id="Vector_6" d="M126.969 25.116L124.659 27.4255L126.969 29.735L129.278 27.4255L126.969 25.116Z" fill="var(--fill-0, #F5EFE0)"/>
<path id="Vector_7" d="M145.471 6.5648C142.109 6.5648 139.571 9.51022 139.571 13.4176C139.571 15.5247 140.547 18.0396 145.201 18.0396H148.801C148.329 19.8444 146.534 20.4078 141.637 20.4078H129.48C127.098 20.4078 125.888 19.4825 125.888 17.6594V11.0494H123.172V17.6594C123.172 19.4321 121.995 20.4078 119.851 20.4078H106.113C103.731 20.4078 102.522 19.4825 102.522 17.6594V3.07885H99.8055V17.6594C99.8055 19.4321 98.6283 20.4078 96.4845 20.4078H85.8846V23.1792H96.8647C98.8115 23.1792 100.346 22.3409 101.166 20.8522C102.009 22.3409 103.63 23.1792 105.733 23.1792H120.231C122.178 23.1792 123.712 22.3409 124.532 20.8567C125.375 22.3455 127.001 23.1792 129.099 23.1792H141.642C148.902 23.1792 151.733 21.3881 151.733 16.789V15.8637C151.733 11.2921 149.392 6.56022 145.476 6.56022L145.471 6.5648ZM148.897 15.0254V15.2728H145.196C142.897 15.2728 142.448 14.5857 142.448 13.3947C142.448 11.4799 143.506 9.44609 145.471 9.44609C147.436 9.44609 148.847 12.8084 148.902 15.0254H148.897Z" fill="var(--fill-0, #F5EFE0)"/>
<path id="Vector_8" d="M145.459 0L143.15 2.30987L145.46 4.61893L147.769 2.30906L145.459 0Z" fill="var(--fill-0, #F5EFE0)"/>
</g>
</svg>
